<?xml version="1.0" encoding="UTF-8"?>
<svg id="Layer_2" data-name="Layer 2" xmlns="http://www.w3.org/2000/svg" viewBox="0 0 466.36 397.14">
  <g id="Layer_1-2" data-name="Layer 1">
    <path d="M242.1,245.14l.8-18.37V49.91l-.8-18.37c-.8-8.78-2.6-14.7-5.39-17.77-2.79-3.06-6.79-4.92-11.98-5.59-5.19-.66-9.58-1.06-13.18-1.2-3.59-.13-6.72-.33-9.38-.6V0h180.46v6.39l-18.76,1.6c-7.98,1.07-13.44,3.19-16.37,6.39-2.93,3.19-4.79,9.18-5.59,17.97l-.8,18.37v138.54c0,29.28-14.04,54.37-42.12,75.26-28.08,20.9-59.16,31.34-93.22,31.34-25.14,0-45.66-5.85-61.57-17.57-15.91-11.71-23.87-28.08-23.87-49.11,0-13.31,4.95-24.75,14.83-34.34,9.89-9.58,21.65-14.37,35.27-14.37,16.03,0,28.72,4.53,38.08,13.58,9.35,9.05,14.03,20.9,14.03,35.53,0,12.78-3.06,23.03-9.18,30.74-6.92,7.19-13.71,14.37-20.36,21.56,0,2.66,1.86,4.46,5.59,5.39,3.72.94,8.38,1.4,13.97,1.4,11.44,0,19.23-4.45,23.36-13.38,4.12-8.91,6.19-18.96,6.19-30.14Z"/>
    <path d="M233.18,397.14c-62.28,0-120.84-24.25-164.88-68.3C24.26,284.8,0,226.24,0,163.96c0-11.05,8.95-20,20-20s20,8.95,20,20c0,106.52,86.66,193.18,193.18,193.18s193.18-86.66,193.18-193.18c0-11.05,8.95-20,20-20s20,8.95,20,20c0,62.29-24.26,120.84-68.3,164.88-44.04,44.04-102.6,68.3-164.88,68.3Z"/>
  </g>
</svg>